<?xml version="1.0" encoding="utf-8"?>
<!-- Generator: Adobe Illustrator 25.1.0, SVG Export Plug-In . SVG Version: 6.00 Build 0)  -->
<svg version="1.1" id="Layer_1" xmlns="http://www.w3.org/2000/svg" xmlns:xlink="http://www.w3.org/1999/xlink" x="0px" y="0px"
	 viewBox="0 0 368.7 194.6" style="enable-background:new 0 0 368.7 194.6;" xml:space="preserve">
<style type="text/css">
	.st0{fill:#B0793E;}
	.st1{fill:#875428;}
	.st2{fill:#A66C38;}
	.st3{opacity:0.4;}
	.st4{opacity:0.5;}
	.st5{fill:none;}
	.st6{fill:#C08345;}
	.st7{fill:#9C6132;}
	.st8{opacity:0.6;}
	.st9{fill:#848689;}
	.st10{fill:#565759;}
</style>
<g>
	<g>
		<g>
			<g>
				<path class="st0" d="M6.1,43.3c0,0,45,67.7,56.1,72.5c11.1,4.8,31.4,14.3,31.4,14.3s183.6,8.7,225,2.5c0,0,14.6-2.9,21.2-11.3
					c6.6-8.5,22.9-40,22.9-40s-204.9-13-269.2-20.8C29.1,52.8,6.1,43.3,6.1,43.3z"/>
				<path class="st1" d="M262.6,135.1C262.6,135.1,262.6,135.1,262.6,135.1c-68.2,0-168.1-4.7-169.1-4.8c0,0-0.1,0-0.1,0
					c-0.2-0.1-20.4-9.5-31.4-14.3C51,111.2,7.7,46.2,5.8,43.4c-0.1-0.1-0.1-0.2,0-0.3C5.9,43,6.1,43,6.2,43
					c8,3.3,36.4,11.2,87.3,17.3C157,68,360.6,80.9,362.6,81.1c0.1,0,0.2,0.1,0.2,0.1c0,0.1,0,0.2,0,0.3c-0.2,0.3-16.4,31.7-22.9,40
					c-6.6,8.4-21.2,11.4-21.4,11.4C308.7,134.4,289.9,135.1,262.6,135.1z M93.6,129.8c2.8,0.1,101.4,4.8,169,4.8
					c27.2,0,46-0.7,55.8-2.2c0.1,0,14.6-2.9,21-11.2c6.1-7.9,20.9-36.1,22.7-39.6c-10.3-0.7-206.6-13.2-268.8-20.7
					C44,54.9,15.7,47.3,6.8,43.8c4.8,7.2,45.2,67.2,55.5,71.7C73,120.2,92.5,129.3,93.6,129.8z"/>
			</g>
			<g>
				<path class="st2" d="M62.2,115.8c11.1,4.8,31.4,14.3,31.4,14.3s183.6,8.7,225,2.5c0,0,12.4-2.4,19.5-9.4
					C240.7,132,62.2,115.8,62.2,115.8z"/>
				<path class="st1" d="M262.6,135.1c-68.2,0-168.1-4.7-169.1-4.8c0,0-0.1,0-0.1,0c-0.2-0.1-20.4-9.5-31.4-14.3
					c-0.1-0.1-0.2-0.2-0.2-0.3c0-0.1,0.1-0.2,0.3-0.2c1.1,0.1,111.6,10,205,10c27.8,0,51.6-0.9,70.8-2.6c0.1,0,0.2,0.1,0.3,0.2
					c0,0.1,0,0.2-0.1,0.3c-7.1,7-19.5,9.5-19.7,9.5C308.7,134.4,289.9,135.1,262.6,135.1z M93.6,129.8c2.8,0.1,101.4,4.8,169,4.8
					c27.2,0,46-0.7,55.8-2.2c0.1,0,11.8-2.4,18.8-8.8c-19.1,1.7-42.7,2.5-70.1,2.5c-87.3,0-189.5-8.7-203.4-9.9
					C74.7,121,92.6,129.3,93.6,129.8z"/>
			</g>
			<g>
				<g>
					<path class="st0" d="M159,95.3c-61.1-3.7-104.9-10.8-127.2-15c2.3,3.1,4.6,6.2,6.8,9.3c23.8,3.5,65.1,8.6,120.5,12
						c71.5,4.4,153.3,5.4,189.3,5.6c1.1-1.9,2.2-4,3.4-5.9C317.9,101,232.9,99.8,159,95.3z"/>
					<path class="st1" d="M348.6,107.5C348.6,107.5,348.6,107.5,348.6,107.5c-32.8-0.2-116.9-1.2-189.4-5.6
						c-54.8-3.3-95.8-8.4-120.5-12c-0.1,0-0.1,0-0.2-0.1c-2.2-2.9-4.5-6-6.8-9.3c-0.1-0.1-0.1-0.2,0-0.3c0.1-0.1,0.2-0.1,0.3-0.1
						c20.9,4,65.2,11.2,127.1,15c74,4.5,159.5,5.6,192.9,5.9c0.1,0,0.2,0,0.2,0.1c0,0.1,0,0.2,0,0.3c-1.2,2.1-2.3,4.1-3.4,6
						C348.8,107.4,348.7,107.5,348.6,107.5z M38.9,89.4c24.7,3.6,65.7,8.7,120.4,12c72.4,4.4,156.3,5.4,189.2,5.6
						c1-1.7,2-3.5,3.1-5.4c-33.6-0.3-118.7-1.4-192.5-5.9C97.7,91.9,53.6,84.7,32.5,80.7C34.7,83.8,36.8,86.7,38.9,89.4z"/>
				</g>
				<g>
					<path class="st0" d="M355.2,95.3c1.3-2.3,2.5-4.5,3.5-6.5C324,87.7,151.1,81.5,93.4,74.6c-38.6-4.7-62.4-10-75.2-13.5
						c2,2.9,4.2,6.1,6.5,9.3c19,4.6,65.6,14.4,134.1,18.6C235.2,93.7,323.5,95,355.2,95.3z"/>
					<path class="st1" d="M355.2,95.6C355.2,95.6,355.2,95.6,355.2,95.6c-33.8-0.4-120.7-1.7-196.4-6.3
						c-69.5-4.2-117-14.4-134.1-18.6c-0.1,0-0.1-0.1-0.2-0.1c-2.1-3-4.3-6.1-6.5-9.3c-0.1-0.1-0.1-0.2,0-0.3
						c0.1-0.1,0.2-0.1,0.3-0.1c13.1,3.6,36.8,8.8,75.1,13.5c57.7,7,231.1,13.1,265.3,14.3c0.1,0,0.2,0.1,0.2,0.1c0,0.1,0,0.2,0,0.3
						c-1,1.9-2.2,4.1-3.5,6.5C355.4,95.5,355.3,95.6,355.2,95.6z M24.9,70.2c17.2,4.2,64.6,14.3,133.9,18.6
						c75.5,4.6,162.2,5.9,196.2,6.3c1.2-2.1,2.2-4.2,3.2-6c-35.1-1.2-207.4-7.3-264.9-14.3c-37.7-4.5-61.2-9.7-74.5-13.3
						C20.9,64.5,23,67.4,24.9,70.2z"/>
				</g>
				<g class="st3">
					<path class="st0" d="M54.5,72.8c8.4,1.4,16.9,2.9,25.3,4.2c9.5,1.5,19.2,2.4,28.8,3.6c0.9,0.1,1.8,0.1,2.7,0.2
						c4.1,0.3,8,0.9,12,1.5c4.3,0.6,8.7,0.8,13.1,1c4.3,0.2,8.7,0.5,13,0.7c7.2,0.4,14.3,0.9,21.5,1.4c5.1-0.6,10.3-0.6,15.5-0.4
						c6.5,0.2,12.9,0.5,19.4,1c7,0.5,13.9,1.1,20.9,1c6.8-0.1,13.6-0.1,20.4,0.3c7.2,0.4,14.4,1.1,21.7,1.4
						c3.4,0.2,6.9,0.2,10.3,0.3c4.4,0.1,8.8,0.2,13.1,0.3c1.5,0,3,0.1,4.4,0.2c0.3,0,8-0.5,11.1-0.6c6.8-0.1,13.6-0.4,20.4-0.2
						c7.1,0.2,14.1,0.6,21.1,0.8c2.8,0.1,5.7,0.3,8.6,0.5c0.2-0.4,0.4-0.8,0.6-1.2C324,87.7,151.1,81.5,93.4,74.6
						c-38.6-4.7-62.4-10-75.2-13.5c0.7,1,1.4,2.1,2.2,3.1c3.1,0.8,6.2,1.5,9.3,2.4C37.9,69,46.1,71.4,54.5,72.8z"/>
				</g>
				<g>
					<path class="st0" d="M160.4,115.8c-45.9-2.8-82.4-5.9-107.3-8.2c3.8,4.3,7,7.4,9.1,8.2c0,0,178.5,16.2,275.9,7.4
						c0.6-0.6,1.2-1.2,1.7-1.9c0.4-0.5,0.9-1.1,1.3-1.8C302.3,119.8,227.1,119.9,160.4,115.8z"/>
					<path class="st1" d="M267.2,126.1c-93.5,0-203.9-9.9-205-10c0,0-0.1,0-0.1,0c-1.9-0.8-5-3.6-9.2-8.3c-0.1-0.1-0.1-0.2,0-0.3
						c0-0.1,0.2-0.2,0.3-0.1c22.8,2.2,59.9,5.3,107.3,8.2c52.2,3.2,109.6,3.9,148.6,3.9c10.8,0,21.6-0.1,32.1-0.1
						c0.1,0,0.2,0.1,0.2,0.1c0,0.1,0,0.2,0,0.3c-0.5,0.7-0.9,1.3-1.3,1.8c-0.5,0.6-1.1,1.3-1.7,1.9c0,0-0.1,0.1-0.2,0.1
						C318.9,125.2,295,126.1,267.2,126.1z M62.2,115.5c2.7,0.2,112.2,10,205,10c27.8,0,51.6-0.9,70.7-2.6c0.6-0.6,1.1-1.2,1.6-1.8
						c0.3-0.4,0.7-0.9,1-1.4c-10.3,0.1-21,0.1-31.6,0.1c-39,0-96.4-0.7-148.6-3.9c-46.9-2.9-83.8-6-106.6-8.2
						C57.6,112.1,60.4,114.7,62.2,115.5z"/>
				</g>
				<g>
					<path class="st2" d="M351.9,101.3c1.1-2,2.2-4,3.3-5.9c-31.6-0.3-120-1.6-196.3-6.3c-68.5-4.2-115.1-14-134.1-18.6
						c2.3,3.2,4.7,6.6,7.1,9.9c22.3,4.2,66,11.3,127.2,15C232.9,99.8,317.9,101,351.9,101.3z"/>
					<path class="st1" d="M351.9,101.5C351.9,101.5,351.9,101.5,351.9,101.5c-33.3-0.3-118.9-1.4-192.9-5.9
						c-62-3.8-106.3-11-127.2-15c-0.1,0-0.1,0-0.2-0.1c-2.3-3.1-4.7-6.5-7.1-9.9c-0.1-0.1-0.1-0.2,0-0.3c0.1-0.1,0.2-0.1,0.3-0.1
						c17.1,4.2,64.5,14.4,134,18.6c75.6,4.6,162.5,5.9,196.3,6.3c0.1,0,0.2,0.1,0.2,0.1c0,0.1,0,0.2,0,0.3c-1,1.9-2.1,3.9-3.3,5.9
						C352.1,101.5,352,101.5,351.9,101.5z M32,80.1c20.9,4,65.2,11.2,127,15c73.9,4.5,159.3,5.6,192.7,5.9c1-1.8,2-3.7,3-5.4
						c-34.2-0.4-120.6-1.7-195.9-6.3C90.2,85.1,43.1,75.1,25.4,70.9C27.7,74.1,29.9,77.2,32,80.1z"/>
				</g>
				<g>
					<path class="st0" d="M38.7,89.6c2.3,3.1,4.6,6,6.8,8.8c24.6,2.7,63.4,6.5,114,9.5c69.3,4.2,148.1,5.1,185.7,5.2
						c1.1-1.9,2.3-3.9,3.5-6c-36-0.2-117.8-1.2-189.3-5.6C103.8,98.2,62.5,93.1,38.7,89.6z"/>
					<path class="st1" d="M345.1,113.4L345.1,113.4c-40-0.2-117.3-1.1-185.7-5.3c-51.1-3.1-90.2-6.9-114-9.5c-0.1,0-0.1,0-0.2-0.1
						c-2.1-2.6-4.4-5.6-6.8-8.8c-0.1-0.1-0.1-0.2,0-0.3c0.1-0.1,0.2-0.1,0.3-0.1c24.7,3.6,65.7,8.7,120.5,12
						c72.5,4.4,156.6,5.4,189.3,5.6c0.1,0,0.2,0.1,0.2,0.1c0,0.1,0,0.2,0,0.3c-1.3,2.2-2.4,4.2-3.5,6
						C345.3,113.4,345.2,113.4,345.1,113.4z M45.6,98.1c23.8,2.6,62.8,6.4,113.8,9.5c68.3,4.2,145.5,5.1,185.5,5.2
						c1-1.6,2-3.4,3.2-5.4c-33.1-0.2-116.7-1.2-188.9-5.6C104.9,98.6,64.1,93.6,39.3,90C41.5,92.9,43.7,95.7,45.6,98.1z"/>
				</g>
				<g>
					<path class="st2" d="M45.5,98.4c2.7,3.4,5.3,6.5,7.6,9.2c24.9,2.4,61.4,5.4,107.3,8.2c66.8,4.1,141.9,4.1,180.7,3.7
						c1.2-1.7,2.6-3.9,4-6.3c-37.5-0.2-116.4-1-185.7-5.2C108.8,104.8,70,101.1,45.5,98.4z"/>
					<path class="st1" d="M309,119.9c-39,0-96.4-0.7-148.6-3.9c-47.4-2.9-84.5-6.1-107.3-8.2c-0.1,0-0.1,0-0.2-0.1
						c-2.2-2.5-4.8-5.6-7.6-9.2c-0.1-0.1-0.1-0.2,0-0.3c0.1-0.1,0.2-0.1,0.3-0.1c23.8,2.6,62.8,6.4,113.9,9.5
						c68.4,4.2,145.7,5.1,185.6,5.2c0.1,0,0.2,0.1,0.2,0.1c0,0.1,0,0.2,0,0.3c-1.6,2.6-2.9,4.7-4,6.3c0,0.1-0.1,0.1-0.2,0.1
						C330.5,119.8,319.8,119.9,309,119.9z M53.2,107.3c22.8,2.2,59.9,5.3,107.2,8.2c52.2,3.2,109.6,3.9,148.6,3.9
						c10.7,0,21.5,0,31.9-0.1c1-1.5,2.3-3.5,3.7-5.8c-40.1-0.2-117.1-1.1-185.2-5.2c-50.7-3.1-89.5-6.8-113.3-9.5
						C48.7,102,51.1,104.9,53.2,107.3z"/>
				</g>
			</g>
			<g class="st4">
				<path class="st0" d="M93.4,60.6C29.1,52.8,6.1,43.3,6.1,43.3s45,67.7,56.1,72.5c11.1,4.8,31.4,14.3,31.4,14.3s183.6,8.7,225,2.5
					c0,0,14.6-2.9,21.2-11.3c6.6-8.5,22.9-40,22.9-40S157.7,68.3,93.4,60.6z M236.9,125.3c-7.2,3.4-77,2.1-104.4,0
					c-27.4-2.1-53-7.7-53-7.7l72.3,4.2c0,0-82.3-7.1-89.6-10.5c-7.3-3.4-27.5-32.2-30.3-37.7c-2.8-5.5,2.5-3.2,2.5-3.2
					s38.5,7.1,59.3,11.1c10.2,1.9,10.3,5.6,170.6,12.3C264.3,93.8,249,119.6,236.9,125.3z"/>
			</g>
			<g>
				<g>
					<path class="st5" d="M93.7,81.5c-20.8-4-59.3-11.1-59.3-11.1s-5.3-2.4-2.5,3.2c2.8,5.5,23,34.3,30.3,37.7
						c7.3,3.4,89.6,10.5,89.6,10.5l-72.3-4.2c0,0,25.6,5.6,53,7.7c27.4,2.1,97.2,3.4,104.4,0c12.1-5.7,27.4-31.5,27.4-31.5
						C104,87.1,104,83.4,93.7,81.5z"/>
				</g>
				<g class="st4">
					<path class="st0" d="M269.3,111.7c-1.2-0.1-1.8-0.1-1.8-0.1C268,111.6,268.6,111.6,269.3,111.7z"/>
				</g>
				<g class="st4">
					<path class="st0" d="M260.3,74.4l10,10.6l71.6,6.5l-69.6,1.6l64.3,2.2l-3,5.3l-60.3-0.7l57.5,2.9l-72.3,2.6l60.7,2.1
						c0,0-34.2,4.7-49.8,4.1c7.4,0.4,34.1,2,32.6,4.1c-1.8,2.5-15.5,16.5-54.9,17.9c-4.5,0.2-8.1,0.5-11,0.9
						c35.6,0.5,67.9,0.2,82.5-2c0,0,14.6-2.9,21.2-11.3c6.6-8.5,22.9-40,22.9-40S316,78.4,260.3,74.4z"/>
				</g>
			</g>
			<g>
				<path class="st6" d="M93.1,60.6C28.8,52.8,5.8,43.3,5.8,43.3s0,0,0,0.1c1.8,5.4,3.6,10.9,5.4,16.3c13,3.5,43.7,10.4,82,15
					c57.7,7,232.1,13.3,266.8,14.5c2.4-4.5,3-7.9,3-7.9S157.4,68.3,93.1,60.6z"/>
				<path class="st7" d="M359.9,89.3C359.9,89.3,359.9,89.3,359.9,89.3c-8.4-0.3-205.1-7-266.8-14.5c-35.6-4.3-66.4-10.8-82-15
					c-0.1,0-0.2-0.1-0.2-0.2l-1.8-5.6C7.9,50.5,6.7,47,5.5,43.4c0-0.1,0-0.1,0-0.2l0-0.1c0-0.1,0.1-0.1,0.1-0.2c0.1,0,0.1,0,0.2,0
					c8,3.3,36.4,11.2,87.3,17.3c63.6,7.7,267.7,20.5,269.7,20.6c0.1,0,0.1,0,0.2,0.1s0.1,0.1,0.1,0.2c0,0.1-0.6,3.5-3,7.9
					C360.1,89.3,360,89.3,359.9,89.3z M11.4,59.4C27,63.6,57.7,70,93.2,74.3c61.4,7.4,256.2,14.1,266.6,14.5
					c1.9-3.6,2.6-6.4,2.8-7.3c-9-0.6-207-13.1-269.5-20.6c-49.9-6-78.3-13.7-86.9-17.1c1.1,3.4,2.2,6.8,3.4,10.2L11.4,59.4z"/>
			</g>
			<g>
				<path class="st6" d="M15.2,49.3c3.1,1,6.4,1.3,9.5,2.2c3,0.9,6,1.8,9,2.6c6.2,1.7,12.5,3.2,18.8,4.2c3.3,0.5,6.6,0.7,9.9,0.9
					c3.1,0.2,6,0.6,9.1,1.2c4.1,0.7,8.3,1.6,12.4,2.2c4.3,0.6,8.5,0.8,12.8,0.9c4.2,0.1,8.4,0.3,12.6,0.8c4.3,0.5,8.5,1.1,12.8,1.3
					c8.4,0.5,16.9,1.6,25.3,1.4c3.9-0.1,7.9-0.3,11.8-0.1c0.7,0,1.4,0.1,2.1,0.1c-27.9-2.3-52.4-4.5-68.3-6.4
					C28.8,52.8,5.8,43.3,5.8,43.3s0,0,0,0.1c0.2,0.5,0.4,1.1,0.5,1.6C9.3,46.2,12.1,48.3,15.2,49.3z"/>
			</g>
			<g class="st3">
				<path class="st6" d="M93.1,60.6c-13.5-1.6-25.2-3.3-35.2-5c0.1,0.1,0.3,0.1,0.5,0.2c7.1,2.9,36.2,9.6,43,12.3
					c0.3,0.1,0.2,0.5-0.1,0.5c-16.1,1.4-32.2-0.5-48.1-2.4c-14.3-1.7-28.5-4-42.3-7.7c0.1,0.4,0.2,0.7,0.4,1.1
					c13,3.5,43.7,10.4,82,15c57.7,7,232.1,13.3,266.8,14.5c2.4-4.5,3-7.9,3-7.9S157.4,68.3,93.1,60.6z"/>
			</g>
			<g class="st3">
				<path class="st6" d="M205.8,70.4c15.1,2.8,30.4,4.6,45.7,6.3c8,0.9,16,1.7,24,2.9c8.7,1.3,17.4,2.8,26.1,3.8
					c0.3,0,0.3,0.5,0,0.5c-6.3,0.5-12.5-0.1-18.8-0.6c-5.1-0.4-10.3-0.6-15.4-0.9c-32.7-0.9-65.4-2.9-98.1-3.9
					c-20.7-0.7-41.5-1.2-62.2-2.5c67.8,6.4,220.7,11.9,252.9,13c2.4-4.5,3-7.9,3-7.9S281.9,76.1,205.8,70.4z"/>
			</g>
			<g class="st4">
				<path class="st0" d="M106.5,85.4c-4-0.9-8-2-12-2.8c-4.5-0.8-9-1.5-13.5-2.2c-4.3-0.7-8.6-1.1-12.9-1.9
					c-4.4-0.8-8.7-1.8-13.2-2.4c-0.4,0-0.8,0.7-0.4,0.8c4.2,0.6,8.4,2.4,12.5,3.5c4.1,1.1,8.4,1.6,12.6,2.4c8.7,1.7,17.6,3,26.5,3.5
					C106.4,86.4,106.9,85.5,106.5,85.4z"/>
			</g>
			<g class="st4">
				<path class="st0" d="M146.5,101c-6.3-0.9-12.7-0.7-19-1.4c-6.8-0.7-13.3-2-20.1-3.1c-6.5-1.1-13.4-1-19.8-2.4
					c-2.6-0.6-5.3-0.5-7.9-0.4c-3.7,0.2-7.5-0.2-11.2-0.8c-0.5-0.1-1.3,1-0.7,1.2c3,0.8,5.9,1.5,9,1.8c3.1,0.3,6.2,0.1,9.3,0.8
					c6.5,1.4,13.2,1.6,19.8,2.5c6.6,0.9,13.2,1.7,19.9,1.9c6.8,0.2,13.5,0.1,20.3,0.6C146.4,101.8,146.9,101,146.5,101z"/>
			</g>
			<g class="st4">
				<path class="st0" d="M145.1,114.3c-6.9-1.6-14.2-1.4-21.1-2.8c-7.1-1.5-14.6-1-21.8-1.2c-0.5,0-1.3,1.2-0.6,1.4
					c6.8,1.6,14,1.3,21,2.4c7.3,1.2,14.7,0.3,22.1,1C145,115.2,145.5,114.4,145.1,114.3z"/>
			</g>
			<g class="st4">
				<path class="st0" d="M86.9,102.8c-2.5-0.9-5.1-1.1-7.7-1.7c-2.7-0.7-5.4-0.9-8.1-1.3C65.4,99,59.3,99.2,53.6,98
					c-0.5-0.1-1.3,1-0.7,1.2c5.5,1.7,11.3,2,16.9,3.1c2.4,0.4,4.9,0.6,7.4,1c3.1,0.5,6.2,0.1,9.2,0.5
					C86.8,103.8,87.4,103,86.9,102.8z"/>
			</g>
			<g class="st4">
				<path class="st0" d="M221.3,111.1c-3.8-0.4-7.7-1.1-11.6-1.7c-3.4-0.5-6.9-0.5-10.3-0.8c-7.8-0.8-16-1.7-23.7-0.9
					c-0.5,0.1-1.3,1.3-0.5,1.3c3.8,0,7.6,1,11.4,1.2c4.1,0.3,8.1,0.7,12.1,1.1c7.4,0.7,14.9,0.6,22.3,0.2
					C221.3,111.6,221.6,111.2,221.3,111.1z"/>
			</g>
			<g class="st4">
				<path class="st0" d="M296.4,118.8c-9.1-0.2-18.3-1.2-27.4-0.6c-4.3,0.3-8.6,0.3-12.9,0.3c-5,0.1-10.2,0.9-15.1,0.1
					c-0.4-0.1-1,0.8-0.5,0.9c8.7,1.8,17.9,1.3,26.7,1.3c4.5,0,9.1-0.1,13.6-0.1c5.1,0,10,0.4,15-0.3
					C296.4,120.4,297.4,118.8,296.4,118.8z"/>
			</g>
			<g class="st4">
				<path class="st0" d="M334.7,112.1c-2.6,0.2-5.2-0.2-7.7-0.2c-2.7,0.1-5.6,0-8.3-0.2c-0.7-0.1-1.6,1.4-0.9,1.5
					c2.6,0.4,5.2,0.3,7.8,0.5c2.8,0.1,5.8,0.4,8.5,0.2C334.9,113.8,335.8,112,334.7,112.1z"/>
			</g>
			<g class="st4">
				<path class="st0" d="M183.4,96.3c-7.5-1.5-15-0.9-22.5-1.5c-0.6-0.1-1.5,1.3-0.8,1.4c4.2,0.6,8.6,0.8,12.7,1.6
					c1.3,0.3,3.1,0.4,4.4,0.3c1.9-0.1,3.7,0,5.5-0.4C183.2,97.6,184.2,96.4,183.4,96.3z"/>
			</g>
			<g class="st4">
				<path class="st0" d="M189.4,123.5c-4-0.4-8.1-1.5-12.1-1.5c-2.5,0-4.8-0.1-7.3,0.1c-2.8,0.2-6.3,0.3-9.1-0.2
					c-0.7-0.1-1.7,1.3-0.9,1.5c4.8,1.2,9.6,1,14.5,1.3c4.7,0.3,9.4,0.6,14.1,0.3C189.3,125,190.2,123.5,189.4,123.5z"/>
			</g>
		</g>
		<g class="st3">
			<path class="st6" d="M99.3,125.1c-4.6-2.1-23.2-13.5-23.2-13.5s70.6,4.2,70.5,4.2c0,0-73.1-6.8-79-11.1c-5.9-4.3-16-28.4-16-28.4
				l-17.7-3.6l1.2,0.3c0,0,22.9,34.6,29.6,37.5c6.7,2.9,31.8,17,31.8,17l74,2.5C170.5,129.9,103.9,127.2,99.3,125.1z"/>
		</g>
	</g>
	<g>
		<g>
			<path class="st6" d="M263.3,140.7c-3.1,0.2-4.7-1.7-4.7-1.7l-5.4-6.3l-2.1-2.4L142.2,4.2c-2.1-2.5-5.2,0.2-5.2,0.2
				c-1.8,1.5-0.4,3.9-0.4,3.9l111.4,128.8l0,0l5.4,6.3c0,0,0,0,0.1,0.1c0.3,0.4,1.2,2.2,0.9,4.8c0,0-1.4,8.9,2.4,13.3
				c2.3,2.7,26.9,30.1,28.1,29.8c0.9-0.2,3.3-1.6,5.8-3.2l6.4-5.5c2-2.3,3.7-4.4,4.1-5.2c0.5-1.1-22.7-29.7-25-32.4
				C272.2,140.7,263.3,140.7,263.3,140.7z"/>
			<path class="st7" d="M284.7,191.7L284.7,191.7c-1.7,0-27.1-28.5-28.3-29.9c-3.8-4.5-2.5-13.2-2.4-13.5c0.3-2.5-0.5-4.2-0.8-4.6
				c0-0.1-0.1-0.1-0.1-0.1l-5.3-6.2c0,0-0.1,0-0.1-0.1L136.4,8.5c0-0.1-1.5-2.6,0.4-4.3c0.1-0.1,1.6-1.3,3.2-1.3
				c0.9,0,1.7,0.4,2.4,1.1l108.9,126.1l7.4,8.7c0,0,1.6,1.8,4.5,1.6c0,0,0,0,0,0c0.5,0,9.2,0.1,13,4.5c1.1,1.3,7.4,9.1,13.6,16.8
				c11.8,15,11.6,15.6,11.5,15.9c-0.4,0.8-1.9,2.8-4.1,5.3l-6.4,5.5C287.9,190.3,285.7,191.5,284.7,191.7
				C284.8,191.7,284.7,191.7,284.7,191.7z M248.1,136.9C248.1,137,248.1,137,248.1,136.9l5.4,6.3c0,0,0,0.1,0.1,0.1
				c0.3,0.5,1.3,2.3,0.9,5c0,0.1-1.4,8.8,2.3,13.1c3.3,3.9,26.1,29,27.9,29.7c0.8-0.2,3-1.4,5.7-3.2l6.4-5.4c2.1-2.3,3.6-4.3,4-5.1
				c-0.4-1.9-21.6-28.3-24.9-32.2c-3.7-4.3-12.5-4.3-12.6-4.3c-0.2,0-0.3,0-0.5,0c-2.9,0-4.3-1.7-4.4-1.8l-7.4-8.7L142,4.4
				c-0.5-0.6-1.2-1-2-1c-1.5,0-2.9,1.2-2.9,1.2c-1.6,1.3-0.4,3.5-0.3,3.6L248.1,136.9z"/>
		</g>
		<g>
			<g class="st8">
				<path class="st6" d="M263.3,140.7c-3.1,0.2-4.7-1.7-4.7-1.7l-5.4-6.3l-2.1-2.4L142.2,4.2c-2.1-2.5-5.2,0.2-5.2,0.2
					c-1,0.9-1,2-0.8,2.8c0.3-1.2,1.1-2.2,3.3-1.7L255,140.1c0,0,2.2,3.3,5.7,3.1c3.5-0.1,10.1,5.1,20,17.8
					c9.8,12.7,12.9,18.8,10.8,20.7c-2.1,1.9-6.1,7.7-10.9,2.6c-4.8-5.1-23.2-23.1-24.1-26.2c-0.9-3.1-2.2-8.1-2.3-8.1
					c-0.2,2.8-0.2,8.4,2.6,11.7c2.3,2.7,26.9,30.1,28.1,29.8c0.9-0.2,3.3-1.6,5.8-3.2l6.4-5.5c2-2.3,3.7-4.4,4.1-5.2
					c0.5-1.1-22.7-29.7-25-32.4C272.2,140.7,263.3,140.7,263.3,140.7z"/>
			</g>
		</g>
		<g class="st4">
			<path class="st6" d="M255.9,144.8c0,0-1.6,8.5,3.2,15.2c4.9,6.7,19.6,20.4,19.6,20.4s-17.6-18.4-19-23.6
				c-1.3-5.2,2.4-11.2,2.4-11.2s-3.8,5.1-4.5,2.1C257,144.8,256.5,142.6,255.9,144.8z"/>
		</g>
		<g class="st4">
			<path class="st6" d="M138.6,8.3l114.8,133.1c0,0,0.7-0.4-5.1-8.1C242.5,125.6,145,14,145,14L138.6,8.3z"/>
		</g>
	</g>
	<g>
		<path class="st9" d="M202.4,70.2c0.1-5.5-5.2-11.6-11-10.1c-4.1,1.1-6.7,4.7-7.3,8.7c1,0.1,1.9,0.1,2.9,0.1
			c0.2-0.9,0.4-1.8,0.9-2.8c1.2-2.5,3.9-3.2,6.3-2.7c1.8,0.4,3.2,1.4,4.2,2.8c0.7,1.2,1.2,2.5,1.6,3.7
			C200.8,70,201.6,70.1,202.4,70.2z"/>
		<path class="st10" d="M202.4,70.4C202.4,70.4,202.4,70.4,202.4,70.4c-0.4,0-0.7-0.1-1-0.1c-0.4-0.1-0.9-0.1-1.3-0.2
			c-0.1,0-0.2-0.1-0.2-0.2c-0.4-1-0.9-2.4-1.6-3.6c-1-1.4-2.5-2.3-4.1-2.6c-0.5-0.1-0.9-0.2-1.4-0.2c-2.1,0-3.8,1-4.6,2.7
			c-0.4,0.9-0.7,1.8-0.9,2.7c0,0.1-0.1,0.2-0.3,0.2c-0.4,0-0.8,0-1.2-0.1c-0.6,0-1.1,0-1.7-0.1c-0.1,0-0.1,0-0.2-0.1
			c0-0.1-0.1-0.1-0.1-0.2c0.6-4.3,3.5-7.8,7.5-8.9c2.8-0.8,5.8,0.2,8.1,2.5c2.1,2.1,3.3,5.1,3.3,7.8c0,0.1,0,0.1-0.1,0.2
			C202.5,70.4,202.5,70.4,202.4,70.4z M200.2,69.7c0.4,0,0.8,0.1,1.2,0.1c0.2,0,0.5,0.1,0.7,0.1c-0.1-2.5-1.2-5.2-3.1-7.1
			c-2.2-2.2-5-3.1-7.5-2.4c-3.7,1-6.4,4.2-7,8.2c0.5,0,0.9,0.1,1.4,0.1c0.3,0,0.7,0,1,0c0.2-0.9,0.4-1.7,0.9-2.6
			c0.9-1.9,2.8-3,5.1-3c0.5,0,1,0.1,1.5,0.2c1.7,0.4,3.2,1.4,4.4,2.9C199.3,67.3,199.9,68.6,200.2,69.7z"/>
	</g>
	<g>
		<path class="st9" d="M200.6,64.3c-0.6,0.7-1.7,0.7-2.8-0.1c-1.4-1-3-1.9-4.8-1.8c-1.8,0.1-3.8,0.8-5.1,2.1c-0.8,0.8-1.5,3.4-3,2.6
			c-0.1-0.1-0.2-0.1-0.3-0.2c-0.2,0.6-0.3,1.2-0.4,1.9c1,0.1,1.9,0.1,2.9,0.1c0.2-0.9,0.4-1.8,0.9-2.8c1.2-2.5,3.9-3.2,6.3-2.7
			c1.8,0.4,3.2,1.4,4.2,2.8c0.7,1.2,1.2,2.5,1.6,3.7c0.8,0.1,1.6,0.2,2.4,0.3C202.4,68.2,201.8,66.1,200.6,64.3z"/>
	</g>
</g>
</svg>
